<svg width="16" height="16" viewBox="0 0 16 16" fill="none" xmlns="http://www.w3.org/2000/svg">
<g clip-path="url(#clip0_22_934)">
<path d="M4.00649 13.5172V14.3955L4.62734 13.7743L6.29142 12.1093C6.35973 12.0442 6.45065 12.0082 6.54495 12.0091C6.64012 12.0099 6.7312 12.0481 6.79857 12.1155C6.86593 12.1829 6.90418 12.2741 6.90501 12.3695C6.90583 12.4641 6.86985 12.5551 6.80481 12.6235L3.89999 15.53C3.83186 15.5981 3.73951 15.6364 3.64326 15.6364C3.54701 15.6364 3.45467 15.5981 3.38654 15.53L0.479109 12.6209L0.479148 12.6208L0.474603 12.6165C0.439902 12.5829 0.412212 12.5428 0.393158 12.4984C0.374106 12.454 0.364073 12.4063 0.363654 12.358C0.363234 12.3097 0.372435 12.2618 0.390715 12.2171L0.0541272 12.0794L0.390716 12.2171C0.408996 12.1723 0.435986 12.1317 0.470099 12.0976L0.213153 11.8408L0.470101 12.0976C0.504214 12.0635 0.544768 12.0365 0.589393 12.0182C0.634015 12 0.68182 11.9908 0.730021 11.9912C0.77822 11.9916 0.82586 12.0016 0.870162 12.0207C0.914461 12.0397 0.954543 12.0674 0.988059 12.1021L0.988019 12.1022L0.992488 12.1066L2.65919 13.7743L3.28004 14.3955V13.5172V0.72728C3.28004 0.63077 3.31836 0.538254 3.3865 0.470074C3.45463 0.401901 3.547 0.36364 3.64326 0.36364C3.73953 0.36364 3.8319 0.401902 3.90003 0.470074C3.96817 0.538254 4.00649 0.63077 4.00649 0.72728V13.5172ZM9.09497 1.45456C9.09497 1.35805 9.13329 1.26553 9.20143 1.19735C9.26956 1.12918 9.36193 1.09092 9.4582 1.09092H15.2731C15.3694 1.09092 15.4618 1.12918 15.5299 1.19735L15.7829 0.94451L15.5299 1.19735C15.598 1.26553 15.6364 1.35805 15.6364 1.45456C15.6364 1.55107 15.598 1.64359 15.5299 1.71176L15.7871 1.96882L15.5299 1.71177C15.4618 1.77994 15.3694 1.8182 15.2731 1.8182H9.4582C9.36193 1.8182 9.26956 1.77994 9.20143 1.71176C9.13329 1.64358 9.09497 1.55107 9.09497 1.45456ZM9.20143 5.56103C9.26956 5.49286 9.36193 5.4546 9.4582 5.4546H13.8194C13.9157 5.4546 14.008 5.49286 14.0762 5.56103C14.1443 5.62921 14.1826 5.72173 14.1826 5.81824C14.1826 5.91475 14.1443 6.00726 14.0762 6.07544C14.008 6.14362 13.9157 6.18188 13.8194 6.18188H9.4582C9.36193 6.18188 9.26956 6.14362 9.20143 6.07544C9.13329 6.00726 9.09497 5.91475 9.09497 5.81824C9.09497 5.72173 9.13329 5.62921 9.20143 5.56103ZM9.09497 10.1819C9.09497 10.0854 9.13329 9.99289 9.20143 9.92471C9.26956 9.85654 9.36193 9.81828 9.4582 9.81828H12.3657C12.4619 9.81828 12.5543 9.85654 12.6224 9.92471C12.6906 9.99289 12.7289 10.0854 12.7289 10.1819C12.7289 10.2784 12.6906 10.3709 12.6224 10.4391C12.5543 10.5073 12.4619 10.5456 12.3657 10.5456H9.4582C9.36193 10.5456 9.26956 10.5073 9.20143 10.4391C9.13329 10.3709 9.09497 10.2784 9.09497 10.1819ZM9.20143 14.2884C9.26956 14.2202 9.36193 14.182 9.4582 14.182H10.9119C11.0082 14.182 11.1006 14.2202 11.1687 14.2884C11.2368 14.3566 11.2752 14.4491 11.2752 14.5456C11.2752 14.6421 11.2368 14.7346 11.1687 14.8028C11.1006 14.871 11.0082 14.9092 10.9119 14.9092H9.4582C9.36193 14.9092 9.26956 14.871 9.20143 14.8028C9.13329 14.7346 9.09497 14.6421 9.09497 14.5456C9.09497 14.4491 9.13329 14.3566 9.20143 14.2884Z" fill="black" stroke="#67A800" stroke-width="0.72728"/>
</g>
<defs>
<clipPath id="clip0_22_934">
<rect width="16" height="16" fill="white"/>
</clipPath>
</defs>
</svg>
