<svg width="182" height="20" viewBox="0 0 182 20" fill="none" xmlns="http://www.w3.org/2000/svg">
<path d="M8.82373 2L11.703 6.9091L17.2943 8.11146L13.4826 12.3478L14.0588 18L8.82373 15.7091L3.58862 18L4.16491 12.3478L0.353149 8.11146L5.94442 6.9091L8.82373 2Z" fill="#FFCB45"/>
<path d="M31.4121 2L34.2914 6.9091L39.8827 8.11146L36.0709 12.3478L36.6472 18L31.4121 15.7091L26.177 18L26.7533 12.3478L22.9415 8.11146L28.5328 6.9091L31.4121 2Z" fill="#FFCB45"/>
<path d="M54 2L56.8793 6.9091L62.4706 8.11146L58.6588 12.3478L59.2351 18L54 15.7091L48.7649 18L49.3412 12.3478L45.5294 8.11146L51.1207 6.9091L54 2Z" fill="#FFCB45"/>
<path d="M76.5885 2L79.4678 6.9091L85.0591 8.11146L81.2473 12.3478L81.8236 18L76.5885 15.7091L71.3534 18L71.9297 12.3478L68.1179 8.11146L73.7092 6.9091L76.5885 2Z" fill="#FFCB45"/>
<path d="M99.1762 2L102.055 6.9091L107.647 8.11146L103.835 12.3478L104.411 18L99.1762 15.7091L93.941 18L94.5173 12.3478L90.7056 8.11146L96.2968 6.9091L99.1762 2Z" fill="#F2F2F2"/>
<path d="M93.9413 18L99.1764 15.7091V2L96.2971 6.9091L90.7058 8.11145L94.5176 12.3478L93.9413 18Z" fill="#FFCB45"/>
<path d="M119.167 19.104C118.58 18.1333 118.122 17.0133 117.791 15.744C117.471 14.464 117.311 13.088 117.311 11.616C117.311 10.144 117.471 8.768 117.791 7.488C118.122 6.19733 118.58 5.07733 119.167 4.128H120.255C119.626 5.22667 119.162 6.39467 118.863 7.632C118.575 8.85867 118.431 10.1867 118.431 11.616C118.431 13.0453 118.575 14.3787 118.863 15.616C119.162 16.8427 119.626 18.0053 120.255 19.104H119.167ZM125.74 13.056V12.224L131.676 4.8H132.956L127.068 12.224L126.444 12.032H135.452V13.056H125.74ZM132.06 16V13.056L132.092 12.032V9.44H133.212V16H132.06ZM137.687 16.08C137.452 16.08 137.249 15.9947 137.079 15.824C136.919 15.6533 136.839 15.4453 136.839 15.2C136.839 14.944 136.919 14.736 137.079 14.576C137.249 14.416 137.452 14.336 137.687 14.336C137.921 14.336 138.119 14.416 138.279 14.576C138.449 14.736 138.535 14.944 138.535 15.2C138.535 15.4453 138.449 15.6533 138.279 15.824C138.119 15.9947 137.921 16.08 137.687 16.08ZM143.749 16.096C142.949 16.096 142.187 15.968 141.461 15.712C140.736 15.4453 140.16 15.0933 139.733 14.656L140.293 13.744C140.645 14.1173 141.125 14.4267 141.733 14.672C142.352 14.9173 143.019 15.04 143.733 15.04C144.683 15.04 145.403 14.832 145.893 14.416C146.395 13.9893 146.645 13.4347 146.645 12.752C146.645 12.272 146.528 11.8613 146.293 11.52C146.069 11.168 145.685 10.896 145.141 10.704C144.597 10.512 143.851 10.416 142.901 10.416H140.517L141.093 4.8H147.221V5.824H141.557L142.149 5.264L141.653 9.968L141.061 9.392H143.157C144.288 9.392 145.195 9.53067 145.877 9.808C146.56 10.0853 147.051 10.4747 147.349 10.976C147.659 11.4667 147.813 12.0427 147.813 12.704C147.813 13.3333 147.664 13.9093 147.365 14.432C147.067 14.944 146.619 15.3493 146.021 15.648C145.424 15.9467 144.667 16.096 143.749 16.096ZM152.231 17.6L157.511 2.528H158.551L153.271 17.6H152.231ZM166.546 16.096C165.746 16.096 164.984 15.968 164.258 15.712C163.533 15.4453 162.957 15.0933 162.53 14.656L163.09 13.744C163.442 14.1173 163.922 14.4267 164.53 14.672C165.149 14.9173 165.816 15.04 166.53 15.04C167.48 15.04 168.2 14.832 168.69 14.416C169.192 13.9893 169.442 13.4347 169.442 12.752C169.442 12.272 169.325 11.8613 169.09 11.52C168.866 11.168 168.482 10.896 167.938 10.704C167.394 10.512 166.648 10.416 165.698 10.416H163.314L163.89 4.8H170.018V5.824H164.354L164.946 5.264L164.45 9.968L163.858 9.392H165.954C167.085 9.392 167.992 9.53067 168.674 9.808C169.357 10.0853 169.848 10.4747 170.146 10.976C170.456 11.4667 170.61 12.0427 170.61 12.704C170.61 13.3333 170.461 13.9093 170.162 14.432C169.864 14.944 169.416 15.3493 168.818 15.648C168.221 15.9467 167.464 16.096 166.546 16.096ZM177.156 19.104H176.068C176.708 18.0053 177.172 16.8427 177.46 15.616C177.759 14.3787 177.908 13.0453 177.908 11.616C177.908 10.1867 177.759 8.85867 177.46 7.632C177.172 6.39467 176.708 5.22667 176.068 4.128H177.156C177.764 5.07733 178.228 6.19733 178.548 7.488C178.868 8.768 179.028 10.144 179.028 11.616C179.028 13.088 178.868 14.464 178.548 15.744C178.228 17.0133 177.764 18.1333 177.156 19.104Z" fill="#FFAB00"/>
</svg>
