<svg width="81" height="12" viewBox="0 0 81 12" fill="none" xmlns="http://www.w3.org/2000/svg">
<path d="M6.35294 0L8.51242 3.68183L12.7059 4.58359L9.84706 7.76085L10.2793 12L6.35294 10.2818L2.42661 12L2.85882 7.76085L0 4.58359L4.19346 3.68183L6.35294 0Z" fill="#FFCB45"/>
<path d="M23.2941 0L25.4536 3.68183L29.647 4.58359L26.7882 7.76085L27.2204 12L23.2941 10.2818L19.3678 12L19.8 7.76085L16.9412 4.58359L21.1346 3.68183L23.2941 0Z" fill="#FFCB45"/>
<path d="M40.2353 0L42.3947 3.68183L46.5882 4.58359L43.7294 7.76085L44.1616 12L40.2353 10.2818L36.3089 12L36.7411 7.76085L33.8823 4.58359L38.0758 3.68183L40.2353 0Z" fill="#FFCB45"/>
<path d="M57.1764 0L59.3359 3.68183L63.5294 4.58359L60.6705 7.76085L61.1028 12L57.1764 10.2818L53.2501 12L53.6823 7.76085L50.8235 4.58359L55.0169 3.68183L57.1764 0Z" fill="#FFCB45"/>
<path d="M74.1176 0L76.2771 3.68183L80.4705 4.58359L77.6117 7.76085L78.0439 12L74.1176 10.2818L70.1913 12L70.6235 7.76085L67.7646 4.58359L71.9581 3.68183L74.1176 0Z" fill="#F2F2F2"/>
<path d="M70.1913 12L74.1176 10.2818V0L71.9581 3.68183L67.7646 4.58359L70.6235 7.76085L70.1913 12Z" fill="#FFCB45"/>
</svg>
