<svg width="25" height="18" viewBox="0 0 25 18" fill="none" xmlns="http://www.w3.org/2000/svg">
<path d="M23.04 3.42C22.9212 2.94541 22.6792 2.51057 22.3386 2.15941C21.998 1.80824 21.5707 1.55318 21.1 1.42C19.38 1 12.5 1 12.5 1C12.5 1 5.61996 1 3.89996 1.46C3.42921 1.59318 3.00194 1.84824 2.66131 2.19941C2.32068 2.55057 2.07875 2.98541 1.95996 3.46C1.64518 5.20556 1.4912 6.97631 1.49996 8.75C1.48874 10.537 1.64273 12.3213 1.95996 14.08C2.09092 14.5398 2.33827 14.9581 2.67811 15.2945C3.01794 15.6308 3.43878 15.8738 3.89996 16C5.61996 16.46 12.5 16.46 12.5 16.46C12.5 16.46 19.38 16.46 21.1 16C21.5707 15.8668 21.998 15.6118 22.3386 15.2606C22.6792 14.9094 22.9212 14.4746 23.04 14C23.3523 12.2676 23.5063 10.5103 23.5 8.75C23.5112 6.96295 23.3572 5.1787 23.04 3.42Z" stroke="black" stroke-width="2" stroke-linecap="round" stroke-linejoin="round"/>
<path d="M10.25 12.02L16 8.75L10.25 5.48V12.02Z" stroke="black" stroke-width="2" stroke-linecap="round" stroke-linejoin="round"/>
</svg>
